<svg xmlns="http://www.w3.org/2000/svg" viewBox="0 0 576 512"><!--!Font Awesome Free 6.6.0 by @fontawesome - https://fontawesome.com License - https://fontawesome.com/license/free Copyright 2024 Fonticons, Inc.--><path d="M554.1 83.5L318.4 4.9a96 96 0 0 0 -60.7 0L21.9 83.5A32 32 0 0 0 0 113.9v49l265-79.5c15-4.5 30.9-4.5 46 0l265 79.5v-49c0-13.8-8.8-26-21.9-30.4zm-279.9 30.5L0 196.3v228.4c0 15 10.4 28 25.1 31.2l242.1 53.8a95.9 95.9 0 0 0 41.7 0l242.1-53.8c14.6-3.3 25.1-16.2 25.1-31.2V196.3l-274.2-82.3c-9-2.7-18.6-2.7-27.6 0zM128 230.1c0 3.6-2.4 6.8-5.9 7.7l-80 21.8C37 261 32 257.2 32 251.9v-16.6c0-3.6 2.4-6.8 5.9-7.7l80-21.8c5.1-1.4 10.1 2.4 10.1 7.7v16.6zm144-39.3c0 3.6-2.4 6.8-5.9 7.7l-96 26.2c-5.1 1.4-10.1-2.4-10.1-7.7v-16.6c0-3.6 2.4-6.8 5.9-7.7l96-26.2c5.1-1.4 10.1 2.4 10.1 7.7v16.6zm176 22.7c0-5.3 5-9.1 10.1-7.7l80 21.8c3.5 1 5.9 4.1 5.9 7.7v16.6c0 5.3-5 9.1-10.1 7.7l-80-21.8a8 8 0 0 1 -5.9-7.7v-16.6zm-144-39.3c0-5.3 5-9.1 10.1-7.7l96 26.2c3.5 1 5.9 4.1 5.9 7.7v16.6c0 5.3-5 9.1-10.1 7.7l-96-26.2a8 8 0 0 1 -5.9-7.7v-16.6z"/></svg>